# Blender v2.79 (sub 0) OBJ File: 'Kitchen_FINAL.blend'
# www.blender.org
g BunA
v 0.000000 0.000000 0.000000
v 0.000000 0.020000 0.000000
v 0.000000 0.000000 -0.090000
v 0.000000 0.020000 -0.100000
v 0.034442 0.000000 -0.083149
v 0.038268 0.020000 -0.092388
v 0.063640 0.000000 -0.063640
v 0.070711 0.020000 -0.070711
v 0.083149 0.000000 -0.034442
v 0.092388 0.020000 -0.038268
v 0.090000 0.000000 0.000000
v 0.100000 0.020000 0.000000
v 0.083149 0.000000 0.034442
v 0.092388 0.020000 0.038268
v 0.063640 0.000000 0.063640
v 0.070711 0.020000 0.070711
v 0.034442 0.000000 0.083149
v 0.038268 0.020000 0.092388
v 0.000000 0.000000 0.090000
v 0.000000 0.020000 0.100000
v -0.034442 0.000000 0.083149
v -0.038268 0.020000 0.092388
v -0.063640 0.000000 0.063640
v -0.070711 0.020000 0.070711
v -0.083149 0.000000 0.034442
v -0.092388 0.020000 0.038268
v -0.090000 0.000000 -0.000000
v -0.100000 0.020000 -0.000000
v -0.083149 0.000000 -0.034442
v -0.092388 0.020000 -0.038268
v -0.063640 0.000000 -0.063640
v -0.070711 0.020000 -0.070711
v -0.034442 0.000000 -0.083149
v -0.038268 0.020000 -0.092388
v 0.000000 0.005000 -0.100000
v 0.038268 0.005000 -0.092388
v 0.070711 0.005000 -0.070711
v 0.092388 0.005000 -0.038268
v 0.100000 0.005000 0.000000
v 0.092388 0.005000 0.038268
v 0.070711 0.005000 0.070711
v 0.038268 0.005000 0.092388
v 0.000000 0.005000 0.100000
v -0.038268 0.005000 0.092388
v -0.070711 0.005000 0.070711
v -0.092388 0.005000 0.038268
v -0.100000 0.005000 -0.000000
v -0.092388 0.005000 -0.038268
v -0.070711 0.005000 -0.070711
v -0.038268 0.005000 -0.092388
vt 0.750000 0.270598
vt 0.940746 0.408551
vt 0.877452 0.477060
vt 0.250000 0.270598
vt 0.391614 0.041196
vt 0.461940 0.117317
vt 0.423531 0.923880
vt 0.461765 0.824423
vt 0.461765 0.923880
vt 0.794755 0.514136
vt 0.299728 0.000000
vt 0.423531 0.824423
vt 0.461765 0.716773
vt 0.705245 0.514136
vt 0.200272 0.000000
vt 0.423531 0.716773
vt 0.461765 0.617317
vt 0.622548 0.477060
vt 0.108386 0.041196
vt 0.423531 0.617317
vt 0.461765 0.541196
vt 0.559254 0.408551
vt 0.038060 0.117317
vt 0.461765 0.923880
vt 0.500000 0.824423
vt 0.500000 0.923880
vt 0.525000 0.319041
vt 0.000000 0.216773
vt 0.461765 0.824423
vt 0.500000 0.716773
vt 0.525000 0.222155
vt 0.000000 0.324423
vt 0.461765 0.716773
vt 0.500000 0.617317
vt 0.559254 0.132645
vt 0.038060 0.423879
vt 0.461765 0.617317
vt 0.500000 0.541196
vt 0.622548 0.064136
vt 0.108386 0.500000
vt 0.538235 0.847759
vt 0.576469 0.748303
vt 0.576469 0.847759
vt 0.705245 0.027060
vt 0.200272 0.541196
vt 0.538235 0.748303
vt 0.576469 0.640652
vt 0.794755 0.027060
vt 0.299728 0.541196
vt 0.538235 0.640652
vt 0.576469 0.541196
vt 0.877452 0.064136
vt 0.391614 0.500000
vt 0.538235 0.541196
vt 0.500000 0.617317
vt 0.500000 0.541196
vt 0.940746 0.132645
vt 0.461940 0.423880
vt 0.538235 0.617317
vt 0.500000 0.716773
vt 0.975000 0.222155
vt 0.500000 0.324423
vt 0.538235 0.716773
vt 0.500000 0.824423
vt 0.975000 0.319041
vt 0.500000 0.216773
vt 0.538235 0.824423
vt 0.500000 0.923880
vt 0.538235 0.923880
vt 0.500000 1.000000
vt 1.000000 0.324423
vt 1.000000 0.216773
vt 0.891614 0.041196
vt 0.700272 0.000000
vt 0.538060 0.117317
vt 0.500000 0.216773
vt 0.500000 0.324423
vt 0.538060 0.423880
vt 0.700272 0.541196
vt 0.799728 0.541196
vt 0.891614 0.500000
vt 0.961940 0.423879
vt 0.423531 0.541196
vt 0.461765 0.541196
vt 0.538235 1.000000
vt 0.961940 0.117317
vt 0.799728 0.000000
vt 0.608386 0.041196
vt 0.608386 0.500000
vn 0.0000 -1.0000 0.0000
vn 0.0000 1.0000 0.0000
vn 0.1951 0.0000 -0.9808
vn 0.5556 0.0000 -0.8315
vn 0.8315 0.0000 -0.5556
vn 0.9808 0.0000 -0.1951
vn 0.9808 0.0000 0.1951
vn 0.8315 0.0000 0.5556
vn 0.5556 0.0000 0.8315
vn 0.1951 0.0000 0.9808
vn -0.1951 0.0000 0.9808
vn -0.5556 0.0000 0.8315
vn -0.8315 0.0000 0.5556
vn -0.9808 0.0000 0.1951
vn -0.9808 0.0000 -0.1951
vn -0.8315 0.0000 -0.5556
vn -0.5556 0.0000 -0.8315
vn -0.1951 0.0000 -0.9808
vn -0.0886 -0.8909 -0.4455
vn -0.2523 -0.8909 -0.3776
vn -0.3776 -0.8909 -0.2523
vn -0.4455 -0.8909 -0.0886
vn -0.4455 -0.8909 0.0886
vn -0.3776 -0.8909 0.2523
vn -0.2523 -0.8909 0.3776
vn -0.0886 -0.8909 0.4455
vn 0.0886 -0.8909 0.4455
vn 0.2523 -0.8909 0.3776
vn 0.3776 -0.8909 0.2523
vn 0.4455 -0.8909 0.0886
vn 0.4455 -0.8909 -0.0886
vn 0.3776 -0.8909 -0.2523
vn 0.2523 -0.8909 -0.3776
vn 0.0886 -0.8909 -0.4455
s off
f 1/1/1 3/2/1 5/3/1
f 2/4/2 6/5/2 4/6/2
f 4/7/3 36/8/3 35/9/3
f 1/1/1 5/3/1 7/10/1
f 2/4/2 8/11/2 6/5/2
f 6/12/4 37/13/4 36/8/4
f 1/1/1 7/10/1 9/14/1
f 2/4/2 10/15/2 8/11/2
f 8/16/5 38/17/5 37/13/5
f 1/1/1 9/14/1 11/18/1
f 2/4/2 12/19/2 10/15/2
f 10/20/6 39/21/6 38/17/6
f 1/1/1 11/18/1 13/22/1
f 2/4/2 14/23/2 12/19/2
f 12/24/7 40/25/7 39/26/7
f 1/1/1 13/22/1 15/27/1
f 2/4/2 16/28/2 14/23/2
f 14/29/8 41/30/8 40/25/8
f 1/1/1 15/27/1 17/31/1
f 2/4/2 18/32/2 16/28/2
f 16/33/9 42/34/9 41/30/9
f 1/1/1 17/31/1 19/35/1
f 2/4/2 20/36/2 18/32/2
f 18/37/10 43/38/10 42/34/10
f 1/1/1 19/35/1 21/39/1
f 2/4/2 22/40/2 20/36/2
f 20/41/11 44/42/11 43/43/11
f 1/1/1 21/39/1 23/44/1
f 2/4/2 24/45/2 22/40/2
f 22/46/12 45/47/12 44/42/12
f 1/1/1 23/44/1 25/48/1
f 2/4/2 26/49/2 24/45/2
f 24/50/13 46/51/13 45/47/13
f 1/1/1 25/48/1 27/52/1
f 2/4/2 28/53/2 26/49/2
f 26/54/14 47/55/14 46/56/14
f 1/1/1 27/52/1 29/57/1
f 2/4/2 30/58/2 28/53/2
f 28/59/15 48/60/15 47/55/15
f 1/1/1 29/57/1 31/61/1
f 2/4/2 32/62/2 30/58/2
f 30/63/16 49/64/16 48/60/16
f 1/1/1 31/61/1 33/65/1
f 2/4/2 34/66/2 32/62/2
f 32/67/17 50/68/17 49/64/17
f 1/1/1 33/65/1 3/2/1
f 2/4/2 4/6/2 34/66/2
f 34/69/18 35/70/18 50/68/18
f 50/71/19 3/2/19 33/65/19
f 49/72/20 33/65/20 31/61/20
f 29/57/21 49/72/21 31/61/21
f 47/73/22 29/57/22 27/52/22
f 25/48/23 47/73/23 27/52/23
f 45/74/24 25/48/24 23/44/24
f 21/39/25 45/74/25 23/44/25
f 43/75/26 21/39/26 19/35/26
f 17/31/27 43/75/27 19/35/27
f 15/27/28 42/76/28 17/31/28
f 13/22/29 41/77/29 15/27/29
f 11/18/30 40/78/30 13/22/30
f 38/79/31 11/18/31 9/14/31
f 37/80/32 9/14/32 7/10/32
f 36/81/33 7/10/33 5/3/33
f 35/82/34 5/3/34 3/2/34
f 4/7/3 6/12/3 36/8/3
f 6/12/4 8/16/4 37/13/4
f 8/16/5 10/20/5 38/17/5
f 10/20/6 12/83/6 39/21/6
f 12/24/7 14/29/7 40/25/7
f 14/29/8 16/33/8 41/30/8
f 16/33/9 18/37/9 42/34/9
f 18/37/10 20/84/10 43/38/10
f 20/41/11 22/46/11 44/42/11
f 22/46/12 24/50/12 45/47/12
f 24/50/13 26/54/13 46/51/13
f 26/54/14 28/59/14 47/55/14
f 28/59/15 30/63/15 48/60/15
f 30/63/16 32/67/16 49/64/16
f 32/67/17 34/69/17 50/68/17
f 34/69/18 4/85/18 35/70/18
f 50/71/19 35/82/19 3/2/19
f 49/72/20 50/71/20 33/65/20
f 29/57/21 48/86/21 49/72/21
f 47/73/22 48/86/22 29/57/22
f 25/48/23 46/87/23 47/73/23
f 45/74/24 46/87/24 25/48/24
f 21/39/25 44/88/25 45/74/25
f 43/75/26 44/88/26 21/39/26
f 17/31/27 42/76/27 43/75/27
f 15/27/28 41/77/28 42/76/28
f 13/22/29 40/78/29 41/77/29
f 11/18/30 39/89/30 40/78/30
f 38/79/31 39/89/31 11/18/31
f 37/80/32 38/79/32 9/14/32
f 36/81/33 37/80/33 7/10/33
f 35/82/34 36/81/34 5/3/34
