# Blender v2.79 (sub 0) OBJ File: 'Kitchen_FINAL.blend'
# www.blender.org
g BunB
v 0.000000 0.000000 0.000000
v 0.000000 0.000000 -0.100000
v 0.000000 0.020000 -0.100000
v 0.038268 0.000000 -0.092388
v 0.038268 0.020000 -0.092388
v 0.070711 0.000000 -0.070711
v 0.070711 0.020000 -0.070711
v 0.092388 0.000000 -0.038268
v 0.092388 0.020000 -0.038268
v 0.100000 0.000000 0.000000
v 0.100000 0.020000 0.000000
v 0.092388 0.000000 0.038268
v 0.092388 0.020000 0.038268
v 0.070711 0.000000 0.070711
v 0.070711 0.020000 0.070711
v 0.038268 0.000000 0.092388
v 0.038268 0.020000 0.092388
v 0.000000 0.000000 0.100000
v 0.000000 0.020000 0.100000
v -0.038268 0.000000 0.092388
v -0.038268 0.020000 0.092388
v -0.070711 0.000000 0.070711
v -0.070711 0.020000 0.070711
v -0.092388 0.000000 0.038268
v -0.092388 0.020000 0.038268
v -0.100000 0.000000 -0.000000
v -0.100000 0.020000 -0.000000
v -0.092388 0.000000 -0.038268
v -0.092388 0.020000 -0.038268
v -0.070711 0.000000 -0.070711
v -0.070711 0.020000 -0.070711
v -0.038268 0.000000 -0.092388
v -0.038268 0.020000 -0.092388
v 0.000000 0.058338 0.000000
v 0.000000 0.036273 -0.094227
v 0.036059 0.036273 -0.087055
v 0.066629 0.036273 -0.066629
v 0.087055 0.036273 -0.036059
v 0.094227 0.036273 0.000000
v 0.087055 0.036273 0.036059
v 0.066629 0.036273 0.066629
v 0.036059 0.036273 0.087055
v 0.000000 0.036273 0.094227
v -0.036059 0.036273 0.087055
v -0.066629 0.036273 0.066629
v -0.087055 0.036273 0.036059
v -0.094227 0.036273 -0.000000
v -0.087055 0.036273 -0.036059
v -0.066629 0.036273 -0.066629
v -0.036059 0.036273 -0.087055
v 0.000000 0.047206 -0.079990
v 0.030611 0.047206 -0.073901
v 0.056561 0.047206 -0.056561
v 0.073901 0.047206 -0.030611
v 0.079990 0.047206 0.000000
v 0.073901 0.047206 0.030611
v 0.056561 0.047206 0.056561
v 0.030611 0.047206 0.073901
v 0.000000 0.047206 0.079990
v -0.030611 0.047206 0.073901
v -0.056561 0.047206 0.056561
v -0.073901 0.047206 0.030611
v -0.079990 0.047206 -0.000000
v -0.073901 0.047206 -0.030611
v -0.056561 0.047206 -0.056561
v -0.030611 0.047206 -0.073901
v 0.000000 0.054362 -0.049281
v 0.018859 0.054362 -0.045530
v 0.034847 0.054362 -0.034847
v 0.045530 0.054362 -0.018859
v 0.049281 0.054362 0.000000
v 0.045530 0.054362 0.018859
v 0.034847 0.054362 0.034847
v 0.018859 0.054362 0.045530
v 0.000000 0.054362 0.049281
v -0.018859 0.054362 0.045530
v -0.034847 0.054362 0.034847
v -0.045530 0.054362 0.018859
v -0.049281 0.054362 0.000000
v -0.045530 0.054362 -0.018859
v -0.034847 0.054362 -0.034847
v -0.018859 0.054362 -0.045530
vt 0.350962 0.257430
vt 0.000000 0.206224
vt 0.053431 0.111608
vt 0.772341 0.636484
vt 0.837908 0.724411
vt 0.777206 0.731282
vt 0.940098 0.001801
vt 0.855827 0.094320
vt 0.869681 0.000000
vt 0.152158 0.039191
vt 0.926244 0.659352
vt 1.000000 0.721093
vt 0.940097 0.732167
vt 0.926244 0.096120
vt 0.850962 0.196670
vt 0.281151 0.000000
vt 0.940097 0.367884
vt 0.986946 0.466714
vt 0.926244 0.462204
vt 0.921379 0.198470
vt 0.855827 0.291468
vt 0.420773 0.000000
vt 0.772341 0.270400
vt 0.837908 0.172561
vt 0.833324 0.269002
vt 0.811793 0.001801
vt 0.720643 0.071930
vt 0.741376 0.000000
vt 0.549766 0.039191
vt 0.986946 0.286398
vt 0.926244 0.293269
vt 0.791059 0.073731
vt 0.706789 0.166250
vt 0.648493 0.111608
vt 0.777206 0.534134
vt 0.850962 0.449769
vt 0.837908 0.538644
vt 0.777206 0.168050
vt 0.701924 0.268600
vt 0.701924 0.206224
vt 0.921379 0.564553
vt 0.982362 0.563155
vt 0.706789 0.363398
vt 0.701924 0.308636
vt 0.777206 0.365199
vt 0.837908 0.358328
vt 0.720643 0.436212
vt 0.648493 0.403253
vt 1.000000 0.355009
vt 0.940097 0.366083
vt 0.855827 0.460403
vt 0.869680 0.366083
vt 0.549766 0.475669
vt 0.986946 0.100630
vt 0.850962 0.562753
vt 0.420773 0.514860
vt 0.850962 0.793023
vt 0.791059 0.804096
vt 0.855827 0.657551
vt 0.281151 0.514860
vt 0.833324 0.635085
vt 0.869680 0.730366
vt 0.152158 0.475669
vt 0.986946 0.652481
vt 0.791059 0.439814
vt 0.706789 0.532333
vt 0.720643 0.438013
vt 0.053431 0.403253
vt 0.791059 0.438013
vt 0.850962 0.426939
vt 0.701924 0.634683
vt 0.000000 0.308636
vt 0.706789 0.729481
vt 0.982362 0.197072
vt 0.720643 0.802296
vt 0.050346 0.620025
vt 0.171679 0.582861
vt 0.092707 0.640787
vt 0.518030 0.963071
vt 0.568698 0.874074
vt 0.611058 0.894835
vt 0.143375 0.963071
vt 0.092707 0.874074
vt 0.171679 0.931999
vt 0.143374 0.551790
vt 0.274861 0.551512
vt 0.611058 0.620025
vt 0.611437 0.716470
vt 0.568698 0.640787
vt 0.396483 1.000000
vt 0.489726 0.931999
vt 0.050347 0.894835
vt 0.049968 0.798390
vt 0.396483 0.514860
vt 0.264921 0.514860
vt 0.661405 0.805680
vt 0.661405 0.709180
vt 0.264922 1.000000
vt 0.386544 0.963349
vt 0.000000 0.805680
vt 0.049968 0.716471
vt 0.489726 0.582861
vt 0.386544 0.551512
vt 0.611437 0.798390
vt 0.274861 0.963349
vt 0.000000 0.709180
vt 0.518030 0.551789
vt 0.365106 0.884294
vt 0.428675 0.864980
vt 0.157745 0.782665
vt 0.184076 0.829293
vt 0.365106 0.630566
vt 0.296299 0.630566
vt 0.503660 0.732195
vt 0.428675 0.649880
vt 0.477329 0.829293
vt 0.503660 0.782665
vt 0.296299 0.884294
vt 0.157745 0.732195
vt 0.184076 0.685568
vt 0.232730 0.864980
vt 0.232730 0.649880
vt 0.477328 0.685568
vt 0.330702 0.757430
vt 1.000000 0.377839
vt 1.000000 0.011755
vt 0.850962 0.083685
vn 0.0000 -1.0000 0.0000
vn -0.5247 0.3286 -0.7853
vn 0.1951 0.0000 -0.9808
vn -0.9263 0.3286 0.1843
vn 0.5556 0.0000 -0.8315
vn -0.1843 0.3286 0.9263
vn 0.8315 0.0000 -0.5556
vn 0.7853 0.3286 0.5247
vn 0.9808 0.0000 -0.1951
vn 0.7853 0.3286 -0.5247
vn 0.9808 0.0000 0.1951
vn -0.9263 0.3286 -0.1843
vn 0.8315 0.0000 0.5556
vn -0.5247 0.3286 0.7853
vn 0.5556 0.0000 0.8315
vn 0.5247 0.3286 0.7853
vn 0.1951 0.0000 0.9808
vn 0.9263 0.3286 -0.1843
vn -0.1951 0.0000 0.9808
vn 0.1843 0.3286 -0.9263
vn -0.5556 0.0000 0.8315
vn -0.1843 0.3286 -0.9263
vn -0.8315 0.0000 0.5556
vn -0.7853 0.3286 -0.5247
vn -0.9808 0.0000 0.1951
vn -0.7853 0.3286 0.5247
vn -0.9808 0.0000 -0.1951
vn 0.1843 0.3286 0.9263
vn -0.8315 0.0000 -0.5556
vn 0.9263 0.3286 0.1843
vn -0.5556 0.0000 -0.8315
vn 0.5247 0.3286 -0.7853
vn -0.1951 0.0000 -0.9808
vn -0.1203 0.7874 -0.6046
vn 0.1203 0.7874 0.6046
vn 0.6046 0.7874 -0.1203
vn -0.3425 0.7874 -0.5126
vn -0.5126 0.7874 0.3425
vn 0.3425 0.7874 0.5126
vn 0.5126 0.7874 -0.3425
vn -0.5126 0.7874 -0.3425
vn -0.3425 0.7874 0.5126
vn 0.5126 0.7874 0.3425
vn 0.3425 0.7874 -0.5126
vn -0.6046 0.7874 -0.1203
vn -0.1203 0.7874 0.6046
vn 0.6046 0.7874 0.1203
vn 0.1203 0.7874 -0.6046
vn -0.6046 0.7874 0.1203
vn 0.1284 0.9729 0.1922
vn 0.1922 0.9729 -0.1284
vn -0.1922 0.9729 -0.1284
vn -0.1284 0.9729 0.1922
vn 0.1922 0.9729 0.1284
vn 0.1284 0.9729 -0.1922
vn -0.2267 0.9729 -0.0451
vn -0.0451 0.9729 0.2267
vn 0.2267 0.9729 0.0451
vn 0.0451 0.9729 -0.2267
vn -0.2267 0.9729 0.0451
vn -0.0451 0.9729 -0.2267
vn 0.0451 0.9729 0.2267
vn 0.2267 0.9729 -0.0451
vn -0.1284 0.9729 -0.1922
vn -0.1922 0.9729 0.1284
vn 0.0160 0.9966 -0.0804
vn 0.0455 0.9966 -0.0682
vn 0.0682 0.9966 -0.0455
vn 0.0804 0.9966 -0.0160
vn 0.0804 0.9966 0.0160
vn 0.0682 0.9966 0.0455
vn 0.0455 0.9966 0.0682
vn 0.0160 0.9966 0.0804
vn -0.0160 0.9966 0.0804
vn -0.0455 0.9966 0.0682
vn -0.0682 0.9966 0.0455
vn -0.0804 0.9966 0.0160
vn -0.0804 0.9966 -0.0160
vn -0.0682 0.9966 -0.0455
vn -0.0455 0.9966 -0.0682
vn -0.0160 0.9966 -0.0804
s off
f 1/1/1 2/2/1 4/3/1
f 31/4/2 50/5/2 33/6/2
f 3/7/3 4/8/3 2/9/3
f 1/1/1 4/3/1 6/10/1
f 25/11/4 47/12/4 27/13/4
f 5/14/5 6/15/5 4/8/5
f 1/1/1 6/10/1 8/16/1
f 19/17/6 44/18/6 21/19/6
f 7/20/7 8/21/7 6/15/7
f 1/1/1 8/16/1 10/22/1
f 15/23/8 40/24/8 41/25/8
f 9/26/9 10/27/9 8/28/9
f 1/1/1 10/22/1 12/29/1
f 7/20/10 38/30/10 9/31/10
f 11/32/11 12/33/11 10/27/11
f 1/1/1 12/29/1 14/34/1
f 29/35/12 47/36/12 48/37/12
f 13/38/13 14/39/13 12/33/13
f 1/1/1 14/34/1 16/40/1
f 23/41/14 44/18/14 45/42/14
f 15/23/15 16/43/15 14/39/15
f 1/1/1 16/40/1 18/44/1
f 17/45/16 41/25/16 42/46/16
f 17/45/17 18/47/17 16/43/17
f 1/1/1 18/44/1 20/48/1
f 9/31/18 39/49/18 11/50/18
f 19/17/19 20/51/19 18/52/19
f 1/1/1 20/48/1 22/53/1
f 3/7/20 36/54/20 5/14/20
f 21/19/21 22/55/21 20/51/21
f 1/1/1 22/53/1 24/56/1
f 33/6/22 35/57/22 3/58/22
f 23/41/23 24/59/23 22/55/23
f 1/1/1 24/56/1 26/60/1
f 29/35/24 49/61/24 31/4/24
f 25/11/25 26/62/25 24/59/25
f 1/1/1 26/60/1 28/63/1
f 25/11/26 45/42/26 46/64/26
f 27/65/27 28/66/27 26/67/27
f 1/1/1 28/63/1 30/68/1
f 19/69/28 42/46/28 43/70/28
f 29/35/29 30/71/29 28/66/29
f 1/1/1 30/68/1 32/72/1
f 11/32/30 40/24/30 13/38/30
f 31/4/31 32/73/31 30/71/31
f 1/1/1 32/72/1 2/2/1
f 5/14/32 37/74/32 7/20/32
f 33/6/33 2/75/33 32/73/33
f 35/76/34 66/77/34 51/78/34
f 42/79/35 59/80/35 43/81/35
f 39/82/36 54/83/36 55/84/36
f 50/85/37 65/86/37 66/77/37
f 46/87/38 61/88/38 62/89/38
f 41/90/39 58/91/39 42/79/39
f 38/92/40 53/93/40 54/83/40
f 48/94/41 65/86/41 49/95/41
f 44/96/42 61/88/42 45/97/42
f 40/98/43 57/99/43 41/90/43
f 37/100/44 52/101/44 53/93/44
f 48/94/45 63/102/45 64/103/45
f 43/81/46 60/104/46 44/96/46
f 39/82/47 56/105/47 40/98/47
f 36/106/48 51/78/48 52/101/48
f 47/107/49 62/89/49 63/102/49
f 58/91/50 73/108/50 74/109/50
f 54/83/51 69/110/51 70/111/51
f 65/86/52 80/112/52 81/113/52
f 60/104/53 77/114/53 61/88/53
f 56/105/54 73/108/54 57/99/54
f 52/101/55 69/110/55 53/93/55
f 64/103/56 79/115/56 80/112/56
f 60/104/57 75/116/57 76/117/57
f 55/84/58 72/118/58 56/105/58
f 51/78/59 68/119/59 52/101/59
f 62/89/60 79/115/60 63/102/60
f 66/77/61 67/120/61 51/78/61
f 59/80/62 74/109/62 75/116/62
f 54/83/63 71/121/63 55/84/63
f 65/86/64 82/122/64 66/77/64
f 62/89/65 77/114/65 78/123/65
f 34/124/66 68/119/66 67/120/66
f 34/124/67 69/110/67 68/119/67
f 34/124/68 70/111/68 69/110/68
f 34/124/69 71/121/69 70/111/69
f 34/124/70 72/118/70 71/121/70
f 34/124/71 73/108/71 72/118/71
f 34/124/72 74/109/72 73/108/72
f 34/124/73 75/116/73 74/109/73
f 34/124/74 76/117/74 75/116/74
f 34/124/75 77/114/75 76/117/75
f 34/124/76 78/123/76 77/114/76
f 34/124/77 79/115/77 78/123/77
f 34/124/78 80/112/78 79/115/78
f 34/124/79 81/113/79 80/112/79
f 34/124/80 82/122/80 81/113/80
f 34/124/81 67/120/81 82/122/81
f 31/4/2 49/61/2 50/5/2
f 3/7/3 5/14/3 4/8/3
f 25/11/4 46/64/4 47/12/4
f 5/14/5 7/20/5 6/15/5
f 19/17/6 43/125/6 44/18/6
f 7/20/7 9/31/7 8/21/7
f 15/23/8 13/38/8 40/24/8
f 9/26/9 11/32/9 10/27/9
f 7/20/10 37/74/10 38/30/10
f 11/32/11 13/38/11 12/33/11
f 29/35/12 27/65/12 47/36/12
f 13/38/13 15/23/13 14/39/13
f 23/41/14 21/19/14 44/18/14
f 15/23/15 17/45/15 16/43/15
f 17/45/16 15/23/16 41/25/16
f 17/45/17 19/69/17 18/47/17
f 9/31/18 38/30/18 39/49/18
f 19/17/19 21/19/19 20/51/19
f 3/7/20 35/126/20 36/54/20
f 21/19/21 23/41/21 22/55/21
f 33/6/22 50/5/22 35/57/22
f 23/41/23 25/11/23 24/59/23
f 29/35/24 48/37/24 49/61/24
f 25/11/25 27/13/25 26/62/25
f 25/11/26 23/41/26 45/42/26
f 27/65/27 29/35/27 28/66/27
f 19/69/28 17/45/28 42/46/28
f 29/35/29 31/4/29 30/71/29
f 11/32/30 39/127/30 40/24/30
f 31/4/31 33/6/31 32/73/31
f 5/14/32 36/54/32 37/74/32
f 33/6/33 3/58/33 2/75/33
f 35/76/34 50/85/34 66/77/34
f 42/79/35 58/91/35 59/80/35
f 39/82/36 38/92/36 54/83/36
f 50/85/37 49/95/37 65/86/37
f 46/87/38 45/97/38 61/88/38
f 41/90/39 57/99/39 58/91/39
f 38/92/40 37/100/40 53/93/40
f 48/94/41 64/103/41 65/86/41
f 44/96/42 60/104/42 61/88/42
f 40/98/43 56/105/43 57/99/43
f 37/100/44 36/106/44 52/101/44
f 48/94/45 47/107/45 63/102/45
f 43/81/46 59/80/46 60/104/46
f 39/82/47 55/84/47 56/105/47
f 36/106/48 35/76/48 51/78/48
f 47/107/49 46/87/49 62/89/49
f 58/91/50 57/99/50 73/108/50
f 54/83/51 53/93/51 69/110/51
f 65/86/52 64/103/52 80/112/52
f 60/104/53 76/117/53 77/114/53
f 56/105/54 72/118/54 73/108/54
f 52/101/55 68/119/55 69/110/55
f 64/103/56 63/102/56 79/115/56
f 60/104/57 59/80/57 75/116/57
f 55/84/58 71/121/58 72/118/58
f 51/78/59 67/120/59 68/119/59
f 62/89/60 78/123/60 79/115/60
f 66/77/61 82/122/61 67/120/61
f 59/80/62 58/91/62 74/109/62
f 54/83/63 70/111/63 71/121/63
f 65/86/64 81/113/64 82/122/64
f 62/89/65 61/88/65 77/114/65
