# Blender v2.79 (sub 0) OBJ File: 'Kitchen_FINAL.blend'
# www.blender.org
g Burger
v 0.067175 0.020000 0.067175
v 0.087768 0.020000 0.036355
v 0.095000 0.020000 0.000000
v 0.087768 0.020000 -0.036355
v 0.067175 0.020000 -0.067175
v 0.036355 0.020000 -0.087769
v -0.000000 0.020000 -0.095000
v -0.000000 0.020000 0.000000
v 0.036355 0.020000 0.087769
v -0.000000 0.020000 0.095000
v -0.036355 0.020000 0.087769
v -0.067175 0.020000 0.067175
v -0.087769 0.020000 0.036355
v -0.095000 0.020000 -0.000000
v -0.087769 0.020000 -0.036355
v -0.067175 0.020000 -0.067175
v -0.036355 0.020000 -0.087769
v -0.000000 -0.000000 -0.095000
v 0.036355 -0.000000 -0.087769
v 0.067175 -0.000000 -0.067175
v 0.087768 -0.000000 -0.036355
v 0.095000 -0.000000 0.000000
v 0.087768 -0.000000 0.036355
v 0.067175 -0.000000 0.067175
v 0.036355 -0.000000 0.087769
v -0.000000 -0.000000 0.095000
v -0.036355 -0.000000 0.087769
v -0.067175 -0.000000 0.067175
v -0.087769 -0.000000 0.036355
v -0.095000 -0.000000 -0.000000
v -0.087769 -0.000000 -0.036355
v -0.067175 -0.000000 -0.067175
v -0.036355 -0.000000 -0.087769
v -0.000000 0.000000 0.000000
v -0.000000 0.000000 0.000000
v -0.000000 0.000000 0.000000
v -0.000000 0.000000 0.000000
v -0.000000 0.000000 0.000000
v -0.000000 0.000000 0.000000
v -0.000000 0.000000 0.000000
v -0.000000 0.000000 0.000000
v -0.000000 0.000000 0.000000
v -0.000000 0.000000 0.000000
v -0.000000 0.000000 0.000000
v -0.000000 0.000000 0.000000
v -0.000000 0.000000 0.000000
v -0.000000 0.000000 0.000000
v -0.000000 0.000000 0.000000
v -0.000000 0.000000 0.000000
v -0.000000 0.006667 -0.100000
v -0.000000 0.013333 -0.100000
v 0.038268 0.013333 -0.092388
v 0.038268 0.006667 -0.092388
v 0.070711 0.013333 -0.070711
v 0.070711 0.006667 -0.070711
v 0.092388 0.013333 -0.038268
v 0.092388 0.006667 -0.038268
v 0.100000 0.013333 0.000000
v 0.100000 0.006667 0.000000
v 0.092388 0.013333 0.038268
v 0.092388 0.006667 0.038268
v 0.070711 0.013333 0.070711
v 0.070711 0.006667 0.070711
v 0.038268 0.013333 0.092388
v 0.038268 0.006667 0.092388
v -0.000000 0.013333 0.100000
v -0.000000 0.006667 0.100000
v -0.038268 0.013333 0.092388
v -0.038268 0.006667 0.092388
v -0.070711 0.013333 0.070711
v -0.070711 0.006667 0.070711
v -0.092388 0.013333 0.038268
v -0.092388 0.006667 0.038268
v -0.100000 0.013333 -0.000000
v -0.100000 0.006667 -0.000000
v -0.092388 0.013333 -0.038268
v -0.092388 0.006667 -0.038268
v -0.070711 0.013333 -0.070711
v -0.070711 0.006667 -0.070711
v -0.038268 0.013333 -0.092388
v -0.038268 0.006667 -0.092388
vt 0.250000 0.270598
vt 0.391614 0.488530
vt 0.299728 0.527666
vt 0.392675 0.821732
vt 0.410562 0.716773
vt 0.410562 0.824423
vt 0.200272 0.527666
vt 0.108386 0.488530
vt 0.392675 0.624981
vt 0.410562 0.617317
vt 0.399067 0.500000
vt 0.302345 0.541196
vt 0.461940 0.416215
vt 0.473095 0.423880
vt 0.500000 0.321732
vt 0.517888 0.923880
vt 0.500000 0.821732
vt 0.517888 0.824423
vt 0.500000 0.219464
vt 0.500000 0.719464
vt 0.517888 0.716773
vt 0.461940 0.124981
vt 0.517888 0.617317
vt 0.391614 0.052666
vt 0.399067 0.041196
vt 0.473095 0.117317
vt 0.299728 0.013530
vt 0.302345 0.000000
vt 0.200272 0.013530
vt 0.464225 0.847759
vt 0.446337 0.745612
vt 0.464225 0.748303
vt 0.108386 0.052666
vt 0.446337 0.643344
vt 0.464225 0.640652
vt 0.038060 0.124981
vt 0.446337 0.548860
vt 0.464225 0.541196
vt 0.000000 0.219464
vt 0.553663 0.840095
vt 0.571550 0.748303
vt 0.571550 0.847759
vt 0.000000 0.321732
vt 0.553663 0.745612
vt 0.571550 0.640652
vt 0.038060 0.416216
vt 0.553663 0.643344
vt 0.571550 0.541196
vt 0.410562 0.923879
vt 0.961940 0.124981
vt 0.750000 0.270598
vt 0.750000 0.270598
vt 0.538060 0.416215
vt 0.750000 0.270598
vt 0.750000 0.270598
vt 0.891614 0.052666
vt 0.750000 0.270598
vt 0.608387 0.488530
vt 0.750000 0.270598
vt 0.799728 0.013530
vt 0.750000 0.270598
vt 0.700272 0.527666
vt 0.750000 0.270598
vt 0.700272 0.013530
vt 0.750000 0.270598
vt 0.799728 0.527666
vt 0.750000 0.270598
vt 0.608386 0.052666
vt 0.750000 0.270598
vt 0.961940 0.416215
vt 0.750000 0.270598
vt 0.750000 0.270598
vt 0.891614 0.488530
vt 0.538060 0.124981
vt 0.750000 0.270598
vt 1.000000 0.321732
vt 0.750000 0.270598
vt 0.500000 0.219464
vt 0.750000 0.270598
vt 1.000000 0.219464
vt 0.500000 0.321732
vt 0.446337 0.916215
vt 0.428450 0.824423
vt 0.446337 0.821732
vt 0.428450 0.923879
vt 0.607325 0.643344
vt 0.589438 0.541196
vt 0.607325 0.548860
vt 0.589438 0.640652
vt 0.607325 0.745612
vt 0.589438 0.748303
vt 0.589438 0.847759
vt 0.607326 0.840095
vt 0.482112 0.640652
vt 0.500000 0.548860
vt 0.500000 0.643344
vt 0.482112 0.541196
vt 0.482112 0.748303
vt 0.500000 0.745612
vt 0.482112 0.847759
vt 0.500000 0.840095
vt 0.600933 0.041196
vt 0.464225 0.923880
vt 0.482112 0.923880
vt 0.526906 0.117317
vt 0.535775 0.541196
vt 0.535775 0.617317
vt 0.553663 0.719464
vt 0.553663 0.624981
vt 0.535775 0.716773
vt 0.535775 0.824423
vt 0.553663 0.821732
vt 0.535775 0.923880
vt 0.553663 0.916215
vt 0.600933 0.500000
vt 0.517888 1.000000
vt 0.535775 1.000000
vt 0.697655 0.541196
vt 0.428450 0.541196
vt 0.428450 0.617317
vt 0.428450 0.716773
vt 0.446337 0.624981
vt 0.446337 0.719464
vt 0.392675 0.719464
vt 0.500000 0.916215
vt 0.500000 0.624981
vt 0.446337 0.840095
vt 0.553663 0.548860
vt 0.392675 0.916215
vt 0.697655 0.000000
vt 0.517888 0.541196
vt 0.526906 0.423880
vt 0.410562 0.541196
vn 0.0000 1.0000 -0.0000
vn 0.1572 0.5925 -0.7901
vn 0.4475 0.5925 -0.6698
vn 0.6698 0.5925 -0.4475
vn 0.7901 0.5925 -0.1572
vn 0.7901 0.5925 0.1572
vn 0.6698 0.5925 0.4475
vn 0.4475 0.5925 0.6698
vn 0.1572 0.5925 0.7901
vn -0.1572 0.5925 0.7901
vn -0.4475 0.5925 0.6698
vn -0.6698 0.5925 0.4475
vn -0.7901 0.5925 0.1572
vn -0.7901 0.5925 -0.1572
vn -0.6698 0.5925 -0.4475
vn -0.4475 0.5925 -0.6698
vn -0.1572 0.5925 -0.7901
vn 0.0000 0.0000 1.0000
vn -0.1572 -0.5925 -0.7901
vn -0.1951 0.0000 -0.9808
vn -0.4475 -0.5925 -0.6698
vn -0.5556 0.0000 -0.8315
vn -0.6698 -0.5925 -0.4475
vn -0.8315 0.0000 -0.5556
vn -0.7901 -0.5925 -0.1572
vn -0.9808 0.0000 -0.1951
vn -0.7901 -0.5925 0.1572
vn -0.9808 0.0000 0.1951
vn -0.6698 -0.5925 0.4475
vn -0.8315 0.0000 0.5556
vn -0.4475 -0.5925 0.6698
vn -0.5556 0.0000 0.8315
vn -0.1572 -0.5925 0.7901
vn -0.1951 0.0000 0.9808
vn 0.1572 -0.5925 0.7901
vn 0.1951 0.0000 0.9808
vn 0.4475 -0.5925 0.6698
vn 0.5556 0.0000 0.8315
vn 0.6698 -0.5925 0.4475
vn 0.8315 0.0000 0.5556
vn 0.7901 -0.5925 0.1572
vn 0.9808 0.0000 0.1951
vn 0.7901 -0.5925 -0.1572
vn 0.9808 0.0000 -0.1951
vn 0.6698 -0.5925 -0.4475
vn 0.8315 0.0000 -0.5556
vn 0.4475 -0.5925 -0.6698
vn 0.5556 0.0000 -0.8315
vn 0.1572 -0.5925 -0.7901
vn 0.1951 0.0000 -0.9808
vn 0.0000 -1.0000 0.0000
s off
f 8/1/1 4/2/1 5/3/1
f 7/4/2 52/5/2 51/6/2
f 8/1/1 6/7/1 7/8/1
f 52/5/3 5/9/3 54/10/3
f 5/3/4 56/11/4 54/12/4
f 8/1/1 5/3/1 6/7/1
f 8/1/1 3/13/1 4/2/1
f 4/2/5 58/14/5 56/11/5
f 8/1/1 2/15/1 3/13/1
f 58/16/6 2/17/6 60/18/6
f 8/1/1 1/19/1 2/15/1
f 60/18/7 1/20/7 62/21/7
f 8/1/1 9/22/1 1/19/1
f 1/20/8 64/23/8 62/21/8
f 8/1/1 10/24/1 9/22/1
f 9/22/9 66/25/9 64/26/9
f 8/1/1 11/27/1 10/24/1
f 66/25/10 11/27/10 68/28/10
f 8/1/1 12/29/1 11/27/1
f 68/30/11 12/31/11 70/32/11
f 8/1/1 13/33/1 12/29/1
f 70/32/12 13/34/12 72/35/12
f 8/1/1 14/36/1 13/33/1
f 72/35/13 14/37/13 74/38/13
f 8/1/1 15/39/1 14/36/1
f 14/40/14 76/41/14 74/42/14
f 8/1/1 16/43/1 15/39/1
f 15/44/15 78/45/15 76/41/15
f 8/1/1 17/46/1 16/43/1
f 16/47/16 80/48/16 78/45/16
f 8/1/1 7/8/1 17/46/1
f 80/49/17 7/4/17 51/6/17
f 30/50/18 47/51/18 46/52/18
f 22/53/18 39/54/18 38/55/18
f 29/56/18 46/52/18 45/57/18
f 21/58/18 38/55/18 37/59/18
f 28/60/18 45/57/18 44/61/18
f 20/62/18 37/59/18 36/63/18
f 27/64/18 44/61/18 43/65/18
f 19/66/18 36/63/18 35/67/18
f 26/68/18 43/65/18 42/69/18
f 33/70/18 34/71/18 49/72/18
f 18/73/18 35/67/18 34/71/18
f 25/74/18 42/69/18 41/75/18
f 32/76/18 49/72/18 48/77/18
f 24/78/18 41/75/18 40/79/18
f 31/80/18 48/77/18 47/51/18
f 23/81/18 40/79/18 39/54/18
f 33/82/19 50/83/19 18/84/19
f 80/49/20 50/83/20 81/85/20
f 32/86/21 81/87/21 33/88/21
f 78/45/22 81/87/22 79/89/22
f 31/90/23 79/89/23 32/86/23
f 76/41/24 79/89/24 77/91/24
f 75/92/25 31/90/25 30/93/25
f 74/42/26 77/91/26 75/92/26
f 73/94/27 30/95/27 29/96/27
f 72/35/28 75/97/28 73/94/28
f 71/98/29 29/96/29 28/99/29
f 70/32/30 73/94/30 71/98/30
f 69/100/31 28/99/31 27/101/31
f 68/30/32 71/98/32 69/100/32
f 67/102/33 27/64/33 26/68/33
f 66/103/34 69/100/34 67/104/34
f 65/105/35 26/68/35 25/74/35
f 64/23/36 67/106/36 65/107/36
f 24/108/37 65/107/37 25/109/37
f 62/21/38 65/107/38 63/110/38
f 61/111/39 24/108/39 23/112/39
f 60/18/40 63/110/40 61/111/40
f 59/113/41 23/112/41 22/114/41
f 58/16/42 61/111/42 59/113/42
f 57/115/43 22/53/43 21/58/43
f 56/116/44 59/113/44 57/117/44
f 55/118/45 21/58/45 20/62/45
f 54/10/46 57/119/46 55/120/46
f 53/121/47 20/122/47 19/123/47
f 52/5/48 55/120/48 53/121/48
f 50/83/49 19/123/49 18/84/49
f 51/6/50 53/121/50 50/83/50
f 7/4/2 6/124/2 52/5/2
f 52/5/3 6/124/3 5/9/3
f 5/3/4 4/2/4 56/11/4
f 4/2/5 3/13/5 58/14/5
f 58/16/6 3/125/6 2/17/6
f 60/18/7 2/17/7 1/20/7
f 1/20/8 9/126/8 64/23/8
f 9/22/9 10/24/9 66/25/9
f 66/25/10 10/24/10 11/27/10
f 68/30/11 11/127/11 12/31/11
f 70/32/12 12/31/12 13/34/12
f 72/35/13 13/34/13 14/37/13
f 14/40/14 15/44/14 76/41/14
f 15/44/15 16/47/15 78/45/15
f 16/47/16 17/128/16 80/48/16
f 80/49/17 17/129/17 7/4/17
f 30/50/51 31/80/51 47/51/51
f 22/53/51 23/81/51 39/54/51
f 29/56/51 30/50/51 46/52/51
f 21/58/51 22/53/51 38/55/51
f 28/60/51 29/56/51 45/57/51
f 20/62/51 21/58/51 37/59/51
f 27/64/51 28/60/51 44/61/51
f 19/66/51 20/62/51 36/63/51
f 26/68/51 27/64/51 43/65/51
f 33/70/51 18/73/51 34/71/51
f 18/73/51 19/66/51 35/67/51
f 25/74/51 26/68/51 42/69/51
f 32/76/51 33/70/51 49/72/51
f 24/78/51 25/74/51 41/75/51
f 31/80/51 32/76/51 48/77/51
f 23/81/51 24/78/51 40/79/51
f 33/82/19 81/85/19 50/83/19
f 80/49/20 51/6/20 50/83/20
f 32/86/21 79/89/21 81/87/21
f 78/45/22 80/48/22 81/87/22
f 31/90/23 77/91/23 79/89/23
f 76/41/24 78/45/24 79/89/24
f 75/92/25 77/91/25 31/90/25
f 74/42/26 76/41/26 77/91/26
f 73/94/27 75/97/27 30/95/27
f 72/35/28 74/38/28 75/97/28
f 71/98/29 73/94/29 29/96/29
f 70/32/30 72/35/30 73/94/30
f 69/100/31 71/98/31 28/99/31
f 68/30/32 70/32/32 71/98/32
f 67/102/33 69/130/33 27/64/33
f 66/103/34 68/30/34 69/100/34
f 65/105/35 67/102/35 26/68/35
f 64/23/36 66/131/36 67/106/36
f 24/108/37 63/110/37 65/107/37
f 62/21/38 64/23/38 65/107/38
f 61/111/39 63/110/39 24/108/39
f 60/18/40 62/21/40 63/110/40
f 59/113/41 61/111/41 23/112/41
f 58/16/42 60/18/42 61/111/42
f 57/115/43 59/132/43 22/53/43
f 56/116/44 58/16/44 59/113/44
f 55/118/45 57/115/45 21/58/45
f 54/10/46 56/133/46 57/119/46
f 53/121/47 55/120/47 20/122/47
f 52/5/48 54/10/48 55/120/48
f 50/83/49 53/121/49 19/123/49
f 51/6/50 52/5/50 53/121/50
