# Blender v2.79 (sub 0) OBJ File: 'Kitchen_FINAL.blend'
# www.blender.org
g Tomato
v 0.000000 0.000000 -0.100000
v -0.050000 0.000000 -0.086603
v -0.086603 0.000000 -0.050000
v -0.100000 0.000000 0.000000
v -0.086603 0.000000 0.050000
v -0.050000 0.000000 0.086603
v -0.000000 0.000000 0.100000
v 0.050000 0.000000 0.086603
v 0.086603 0.000000 0.050000
v 0.100000 0.000000 0.000000
v 0.086603 0.000000 -0.050000
v 0.050000 0.000000 -0.086603
v 0.000000 0.000000 -0.080000
v -0.040000 0.000000 -0.069282
v -0.069282 0.000000 -0.040000
v -0.080000 0.000000 0.000000
v -0.069282 0.000000 0.040000
v -0.040000 0.000000 0.069282
v -0.000000 0.000000 0.080000
v 0.040000 0.000000 0.069282
v 0.069282 0.000000 0.040000
v 0.080000 0.000000 0.000000
v 0.069282 0.000000 -0.040000
v 0.040000 0.000000 -0.069282
v 0.000000 0.010000 -0.100000
v -0.050000 0.010000 -0.086603
v -0.086603 0.010000 -0.050000
v -0.100000 0.010000 0.000000
v -0.086603 0.010000 0.050000
v -0.050000 0.010000 0.086603
v -0.000000 0.010000 0.100000
v 0.050000 0.010000 0.086603
v 0.086603 0.010000 0.050000
v 0.100000 0.010000 0.000000
v 0.086603 0.010000 -0.050000
v 0.050000 0.010000 -0.086603
v 0.000000 0.010000 -0.080000
v -0.040000 0.010000 -0.069282
v -0.069282 0.010000 -0.040000
v -0.080000 0.010000 0.000000
v -0.069282 0.010000 0.040000
v -0.040000 0.010000 0.069282
v -0.000000 0.010000 0.080000
v 0.040000 0.010000 0.069282
v 0.069282 0.010000 0.040000
v 0.080000 0.010000 0.000000
v 0.069282 0.010000 -0.040000
v 0.040000 0.010000 -0.069282
vt 0.106429 0.933013
vt 0.312055 0.950000
vt 0.290769 1.000000
vt 0.000000 0.683013
vt 0.164582 0.603590
vt 0.079439 0.696410
vt 0.794395 0.683013
vt 0.714955 0.803590
vt 0.714956 0.696410
vt 0.687966 0.566987
vt 0.482340 0.550000
vt 0.503626 0.500000
vt 0.482340 0.950000
vt 0.503626 1.000000
vt 0.079440 0.803590
vt 0.000000 0.816987
vt 0.312054 0.550000
vt 0.290769 0.500000
vt 0.629812 0.896410
vt 0.687966 0.933013
vt 0.164583 0.896410
vt 0.106429 0.566987
vt 0.794395 0.816987
vt 0.629812 0.603590
vt 0.164583 0.396410
vt 0.290769 0.500000
vt 0.106429 0.433013
vt 0.629813 0.396410
vt 0.794395 0.316987
vt 0.687966 0.433013
vt 0.290769 0.000000
vt 0.164582 0.103590
vt 0.106429 0.066987
vt 0.629813 0.103590
vt 0.503626 0.000000
vt 0.687966 0.066987
vt 0.079440 0.303590
vt 0.000000 0.316987
vt 0.503626 0.500000
vt 0.794395 0.183013
vt 0.079440 0.196410
vt 0.000000 0.183013
vt 0.482341 0.450000
vt 0.714956 0.196410
vt 0.482341 0.050000
vt 0.794395 0.316987
vt 0.835516 0.183013
vt 0.835516 0.316987
vt 0.958879 0.146410
vt 1.000000 0.053590
vt 1.000000 0.146410
vt 0.917758 0.000000
vt 0.876637 0.053590
vt 0.876637 0.000000
vt 0.794395 0.433013
vt 0.835516 0.433013
vt 0.958879 0.053590
vt 1.000000 0.000000
vt 0.835516 0.066987
vt 0.876637 0.000000
vt 0.876637 0.066987
vt 0.917758 0.053590
vt 0.876637 0.146410
vt 0.794395 0.500000
vt 0.835516 0.500000
vt 0.958879 0.639231
vt 1.000000 0.546410
vt 1.000000 0.639231
vt 0.835516 0.183013
vt 0.876637 0.183013
vt 0.917758 0.146410
vt 0.876637 0.253590
vt 0.917758 0.116025
vt 0.958879 0.000000
vt 0.958879 0.116025
vt 0.835516 0.316987
vt 0.876637 0.316987
vt 0.917758 0.253590
vt 0.876637 0.346410
vt 0.917758 0.250000
vt 0.958879 0.250000
vt 0.835516 0.433013
vt 0.876637 0.433013
vt 0.917758 0.346410
vt 0.876637 0.400000
vt 0.917758 0.366025
vt 0.958879 0.366025
vt 0.794395 0.066987
vt 0.835516 0.000000
vt 0.835516 0.066987
vt 0.958879 0.346410
vt 1.000000 0.253590
vt 1.000000 0.346410
vt 0.958879 0.546410
vt 1.000000 0.439231
vt 0.794395 0.183013
vt 0.958879 0.253590
vt 0.958879 0.439230
vt 1.000000 0.346410
vt 0.312055 0.450000
vt 0.714956 0.303590
vt 0.312055 0.050000
vt 0.958879 0.000000
vt 0.835516 0.000000
vt 0.917758 0.000000
vt 0.917758 0.400000
vt 0.794395 0.000000
vt 0.958879 0.346410
vn 0.0000 -1.0000 0.0000
vn 0.0000 1.0000 -0.0000
vn 0.2588 0.0000 0.9659
vn -0.9659 0.0000 0.2588
vn 0.9659 0.0000 0.2588
vn 0.7071 0.0000 0.7071
vn -0.7071 0.0000 0.7071
vn -0.2588 0.0000 -0.9659
vn 0.9659 0.0000 -0.2588
vn -0.2588 0.0000 0.9659
vn -0.7071 0.0000 -0.7071
vn 0.7071 0.0000 -0.7071
vn -0.9659 0.0000 -0.2588
vn 0.2588 0.0000 -0.9659
s off
f 8/1/1 21/2/1 9/3/1
f 6/4/1 17/5/1 18/6/1
f 1/7/1 24/8/1 13/9/1
f 2/10/1 15/11/1 3/12/1
f 9/3/1 22/13/1 10/14/1
f 6/4/1 19/15/1 7/16/1
f 3/12/1 16/17/1 4/18/1
f 10/14/1 23/19/1 11/20/1
f 8/1/1 19/15/1 20/21/1
f 4/18/1 17/5/1 5/22/1
f 12/23/1 23/19/1 24/8/1
f 1/7/1 14/24/1 2/10/1
f 45/25/2 32/26/2 33/27/2
f 42/28/2 29/29/2 30/30/2
f 25/31/2 48/32/2 36/33/2
f 39/34/2 26/35/2 27/36/2
f 46/37/2 33/27/2 34/38/2
f 31/39/2 42/28/2 30/30/2
f 28/40/2 39/34/2 27/36/2
f 47/41/2 34/38/2 35/42/2
f 32/26/2 43/43/2 31/39/2
f 29/29/2 40/44/2 28/40/2
f 48/32/2 35/42/2 36/33/2
f 38/45/2 25/31/2 26/35/2
f 32/46/3 7/47/3 8/48/3
f 46/49/4 23/50/4 22/51/4
f 39/52/5 16/53/5 15/54/5
f 33/55/6 8/48/6 9/56/6
f 47/57/7 24/58/7 23/50/7
f 26/59/8 1/60/8 2/61/8
f 40/62/9 17/63/9 16/53/9
f 34/64/5 9/56/5 10/65/5
f 48/66/10 13/67/10 24/68/10
f 27/69/11 2/61/11 3/70/11
f 41/71/12 18/72/12 17/63/12
f 35/73/9 10/74/9 11/75/9
f 28/76/13 3/70/13 4/77/13
f 42/78/14 19/79/14 18/72/14
f 36/80/12 11/75/12 12/81/12
f 29/82/4 4/77/4 5/83/4
f 43/84/8 20/85/8 19/79/8
f 25/86/14 12/81/14 1/87/14
f 30/88/7 5/89/7 6/90/7
f 44/91/11 21/92/11 20/93/11
f 37/94/3 14/95/3 13/67/3
f 31/96/10 6/90/10 7/47/10
f 45/97/13 22/51/13 21/92/13
f 38/98/6 15/99/6 14/95/6
f 8/1/1 20/21/1 21/2/1
f 6/4/1 5/22/1 17/5/1
f 1/7/1 12/23/1 24/8/1
f 2/10/1 14/24/1 15/11/1
f 9/3/1 21/2/1 22/13/1
f 6/4/1 18/6/1 19/15/1
f 3/12/1 15/11/1 16/17/1
f 10/14/1 22/13/1 23/19/1
f 8/1/1 7/16/1 19/15/1
f 4/18/1 16/17/1 17/5/1
f 12/23/1 11/20/1 23/19/1
f 1/7/1 13/9/1 14/24/1
f 45/25/2 44/100/2 32/26/2
f 42/28/2 41/101/2 29/29/2
f 25/31/2 37/102/2 48/32/2
f 39/34/2 38/45/2 26/35/2
f 46/37/2 45/25/2 33/27/2
f 31/39/2 43/43/2 42/28/2
f 28/40/2 40/44/2 39/34/2
f 47/41/2 46/37/2 34/38/2
f 32/26/2 44/100/2 43/43/2
f 29/29/2 41/101/2 40/44/2
f 48/32/2 47/41/2 35/42/2
f 38/45/2 37/102/2 25/31/2
f 32/46/3 31/96/3 7/47/3
f 46/49/4 47/57/4 23/50/4
f 39/52/5 40/62/5 16/53/5
f 33/55/6 32/46/6 8/48/6
f 47/57/7 48/103/7 24/58/7
f 26/59/8 25/104/8 1/60/8
f 40/62/9 41/71/9 17/63/9
f 34/64/5 33/55/5 9/56/5
f 48/66/10 37/94/10 13/67/10
f 27/69/11 26/59/11 2/61/11
f 41/71/12 42/78/12 18/72/12
f 35/73/9 34/105/9 10/74/9
f 28/76/13 27/69/13 3/70/13
f 42/78/14 43/84/14 19/79/14
f 36/80/12 35/73/12 11/75/12
f 29/82/4 28/76/4 4/77/4
f 43/84/8 44/106/8 20/85/8
f 25/86/14 36/80/14 12/81/14
f 30/88/7 29/107/7 5/89/7
f 44/91/11 45/97/11 21/92/11
f 37/94/3 38/98/3 14/95/3
f 31/96/10 30/88/10 6/90/10
f 45/97/13 46/49/13 22/51/13
f 38/98/6 39/108/6 15/99/6
