# Blender v2.79 (sub 0) OBJ File: 'Kitchen1.blend'
# www.blender.org
g Trays
v 2.500000 0.830000 -2.000000
v 2.500000 0.930000 -2.000000
v 2.500000 0.830000 -1.000000
v 2.500000 0.930000 -1.000000
v -2.500000 0.830000 -2.000000
v -2.500000 0.930000 -2.000000
v -2.500000 0.830000 -1.000000
v -2.500000 0.930000 -1.000000
v -1.500000 0.830000 -1.000000
v -1.500000 0.930000 -1.000000
v -1.500000 0.830000 -2.000000
v -1.500000 0.930000 -2.000000
v -0.000000 0.830000 -1.000000
v -0.000000 0.930000 -2.000000
v -0.000000 0.930000 -1.000000
v -0.000000 0.830000 -2.000000
v -0.500000 0.930000 -1.000000
v -1.000000 0.930000 -1.000000
v -0.500000 0.830000 -2.000000
v -1.000000 0.830000 -2.000000
v -0.500000 0.830000 -1.000000
v -1.000000 0.930000 -2.000000
v -0.500000 0.930000 -2.000000
v -1.050000 0.930000 -1.050000
v -1.450000 0.930000 -1.050000
v -1.050000 0.830000 -1.950000
v -1.450000 0.830000 -1.950000
v -1.450000 0.930000 -1.950000
v -1.450000 0.830000 -1.050000
v -1.050000 0.830000 -1.050000
v -1.050000 0.930000 -1.950000
v -0.550000 0.930000 -1.050000
v -0.950000 0.930000 -1.050000
v -0.550000 0.830000 -1.950000
v -0.950000 0.830000 -1.950000
v -0.550000 0.830000 -1.050000
v -0.950000 0.930000 -1.950000
v -0.550000 0.930000 -1.950000
v -0.450000 0.830000 -1.050000
v -0.050000 0.830000 -1.050000
v -0.450000 0.930000 -1.950000
v -0.050000 0.930000 -1.950000
v -0.050000 0.830000 -1.950000
v -0.050000 0.930000 -1.050000
v -0.450000 0.930000 -1.050000
v -0.450000 0.830000 -1.950000
v -1.200000 0.630000 -1.800000
v -1.300000 0.630000 -1.800000
v -1.300000 0.630000 -1.200000
v -1.200000 0.630000 -1.200000
v -1.210000 0.670000 -1.790000
v -1.290000 0.670000 -1.790000
v -1.290000 0.670000 -1.210000
v -1.210000 0.670000 -1.210000
v -1.000000 0.830000 -1.000000
v -0.950000 0.830000 -1.050000
v -0.700000 0.630000 -1.800000
v -0.800000 0.630000 -1.800000
v -0.800000 0.630000 -1.200000
v -0.700000 0.630000 -1.200000
v -0.710000 0.670000 -1.790000
v -0.790000 0.670000 -1.790000
v -0.790000 0.670000 -1.210000
v -0.710000 0.670000 -1.210000
v -0.200000 0.630000 -1.800000
v -0.300000 0.630000 -1.800000
v -0.300000 0.630000 -1.200000
v -0.200000 0.630000 -1.200000
v -0.210000 0.670000 -1.790000
v -0.290000 0.670000 -1.790000
v -0.290000 0.670000 -1.210000
v -0.210000 0.670000 -1.210000
v 1.500000 0.930000 -1.000000
v 1.500000 0.830000 -1.000000
v 1.500000 0.930000 -2.000000
v 1.500000 0.830000 -2.000000
v 1.000000 0.930000 -1.000000
v 0.500000 0.930000 -1.000000
v 1.000000 0.830000 -2.000000
v 0.500000 0.830000 -2.000000
v 1.000000 0.830000 -1.000000
v 0.500000 0.930000 -2.000000
v 1.000000 0.930000 -2.000000
v 0.450000 0.930000 -1.050000
v 0.050000 0.930000 -1.050000
v 0.450000 0.830000 -1.950000
v 0.050000 0.830000 -1.950000
v 0.050000 0.930000 -1.950000
v 0.050000 0.830000 -1.050000
v 0.450000 0.830000 -1.050000
v 0.450000 0.930000 -1.950000
v 0.950000 0.930000 -1.050000
v 0.550000 0.930000 -1.050000
v 0.950000 0.830000 -1.950000
v 0.550000 0.830000 -1.950000
v 0.950000 0.830000 -1.050000
v 0.550000 0.930000 -1.950000
v 0.950000 0.930000 -1.950000
v 1.050000 0.830000 -1.050000
v 1.450000 0.830000 -1.050000
v 1.050000 0.930000 -1.950000
v 1.450000 0.930000 -1.950000
v 1.450000 0.830000 -1.950000
v 1.450000 0.930000 -1.050000
v 1.050000 0.930000 -1.050000
v 1.050000 0.830000 -1.950000
v 0.300000 0.630000 -1.800000
v 0.200000 0.630000 -1.800000
v 0.200000 0.630000 -1.200000
v 0.300000 0.630000 -1.200000
v 0.290000 0.670000 -1.790000
v 0.210000 0.670000 -1.790000
v 0.210000 0.670000 -1.210000
v 0.290000 0.670000 -1.210000
v 0.500000 0.830000 -1.000000
v 0.550000 0.830000 -1.050000
v 0.800000 0.630000 -1.800000
v 0.700000 0.630000 -1.800000
v 0.700000 0.630000 -1.200000
v 0.800000 0.630000 -1.200000
v 0.790000 0.670000 -1.790000
v 0.710000 0.670000 -1.790000
v 0.710000 0.670000 -1.210000
v 0.790000 0.670000 -1.210000
v 1.300000 0.630000 -1.800000
v 1.200000 0.630000 -1.800000
v 1.200000 0.630000 -1.200000
v 1.300000 0.630000 -1.200000
v 1.290000 0.670000 -1.790000
v 1.210000 0.670000 -1.790000
v 1.210000 0.670000 -1.210000
v 1.290000 0.670000 -1.210000
vt 0.981132 0.580000
vt 0.957547 0.580000
vt 0.957547 0.380000
vt 0.981132 0.380000
vt 0.778302 0.800000
vt 0.801887 0.800000
vt 0.801887 1.000000
vt 0.778302 1.000000
vt 0.981132 0.380000
vt 0.957547 0.380000
vt 0.957547 0.180000
vt 0.981132 0.180000
vt 0.259434 0.200000
vt 0.235849 0.200000
vt 0.235849 0.000000
vt 0.259434 0.000000
vt 0.778302 0.000000
vt 0.778302 0.200000
vt 0.542453 0.200000
vt 0.542453 0.000000
vt 0.000000 0.200000
vt 0.000000 0.000000
vt 0.000000 1.000000
vt 0.000000 0.800000
vt 0.235849 0.800000
vt 0.235849 1.000000
vt 0.000000 0.700000
vt 0.011793 0.710000
vt 0.011793 0.790000
vt 0.259434 1.000000
vt 0.259434 0.800000
vt 0.778302 0.700000
vt 0.801887 0.700000
vt 0.778302 0.000000
vt 0.801887 0.000000
vt 0.801887 0.200000
vt 0.778302 0.200000
vt 0.542453 0.000000
vt 0.542453 0.200000
vt 0.306604 0.200000
vt 0.306604 0.000000
vt 0.235849 0.600000
vt 0.000000 0.600000
vt 0.011793 0.590000
vt 0.224057 0.590000
vt 0.259434 0.600000
vt 0.235849 0.500000
vt 0.259434 0.500000
vt 0.235849 0.700000
vt 0.259434 0.700000
vt 0.542453 0.200000
vt 0.660377 0.200000
vt 0.613208 0.240000
vt 0.589623 0.240000
vt 0.224057 0.690000
vt 0.224057 0.610000
vt 0.778302 0.500000
vt 0.801887 0.500000
vt 0.801887 0.600000
vt 0.778302 0.600000
vt 0.377359 0.500000
vt 0.377359 0.620000
vt 0.353774 0.620000
vt 0.353774 0.500000
vt 0.011793 0.610000
vt 0.801887 0.540000
vt 0.801887 0.360000
vt 0.825472 0.360000
vt 0.825472 0.540000
vt 0.224057 0.710000
vt 0.224057 0.790000
vt 0.523585 0.700000
vt 0.523585 0.780000
vt 0.485849 0.748000
vt 0.485849 0.732000
vt 0.306604 0.740000
vt 0.306604 0.760000
vt 0.448113 0.680000
vt 0.448113 0.500000
vt 0.485849 0.532000
vt 0.485849 0.648000
vt 0.537736 0.700000
vt 0.537736 0.520000
vt 0.561321 0.520000
vt 0.561321 0.700000
vt 0.424528 0.680000
vt 0.424528 0.500000
vt 0.424528 0.840000
vt 0.424528 0.760000
vt 0.448113 0.760000
vt 0.448113 0.840000
vt 0.547170 0.700000
vt 0.547170 0.780000
vt 0.353774 0.440000
vt 0.495283 0.440000
vt 0.495283 0.460000
vt 0.353774 0.460000
vt 0.910377 0.580000
vt 0.910377 0.780000
vt 0.863208 0.740000
vt 0.863208 0.620000
vt 0.957547 0.380000
vt 0.957547 0.580000
vt 0.910377 0.540000
vt 0.910377 0.420000
vt 0.011793 0.690000
vt 0.768868 0.580000
vt 0.768868 0.780000
vt 0.721698 0.740000
vt 0.721698 0.620000
vt 0.924528 0.160000
vt 0.924528 0.080000
vt 0.948113 0.080000
vt 0.948113 0.160000
vt 0.000000 0.500000
vt 0.011793 0.510000
vt 0.224057 0.510000
vt 0.306604 0.640000
vt 0.306604 0.660000
vt 0.424528 0.660000
vt 0.306604 0.660000
vt 1.000000 0.412000
vt 0.981132 0.412000
vt 0.981132 0.296000
vt 1.000000 0.296000
vt 0.660377 0.560000
vt 0.660377 0.380000
vt 0.683962 0.380000
vt 0.683962 0.560000
vt 0.801887 0.800000
vt 0.801887 0.720000
vt 0.825472 0.720000
vt 0.825472 0.800000
vt 0.547170 0.780000
vt 0.547170 0.860000
vt 0.523585 0.860000
vt 0.523585 0.780000
vt 0.599056 0.700000
vt 0.599056 0.520000
vt 0.622641 0.520000
vt 0.622641 0.700000
vt 0.660377 0.820000
vt 0.660377 0.740000
vt 0.683962 0.740000
vt 0.683962 0.820000
vt 0.801887 0.180000
vt 0.801887 0.000000
vt 0.825472 0.000000
vt 0.825472 0.180000
vt 0.306604 0.540000
vt 0.306604 0.560000
vt 0.306604 0.400000
vt 0.542453 0.400000
vt 0.589623 0.360000
vt 0.613208 0.360000
vt 0.424528 0.776000
vt 0.405660 0.776000
vt 0.405660 0.660000
vt 0.424528 0.660000
vt 0.957547 0.580000
vt 0.957547 0.780000
vt 0.910377 0.740000
vt 0.910377 0.620000
vt 0.957547 0.180000
vt 0.957547 0.380000
vt 0.910377 0.340000
vt 0.910377 0.220000
vt 0.485849 0.792000
vt 0.485849 0.808000
vt 0.863208 0.392000
vt 0.863208 0.508000
vt 0.542453 0.500000
vt 0.367925 0.660000
vt 0.386793 0.660000
vt 0.386793 0.776000
vt 0.367925 0.776000
vt 0.721698 0.772000
vt 0.721698 0.788000
vt 0.985849 0.112000
vt 0.985849 0.128000
vt 0.599056 0.668000
vt 0.599056 0.552000
vt 0.863208 0.752000
vt 0.863208 0.768000
vt 0.660377 0.552000
vt 0.660377 0.668000
vt 0.485849 0.828000
vt 0.485849 0.812000
vt 0.863208 0.032000
vt 0.863208 0.148000
vt 0.721698 0.412000
vt 0.721698 0.528000
vt 0.000000 0.400000
vt 0.011793 0.410000
vt 0.011793 0.490000
vt 0.778302 0.400000
vt 0.801887 0.400000
vt 0.235849 0.300000
vt 0.000000 0.300000
vt 0.011793 0.290000
vt 0.224057 0.290000
vt 0.259434 0.300000
vt 0.235849 0.400000
vt 0.259434 0.400000
vt 0.542453 0.300000
vt 0.495283 0.360000
vt 0.495283 0.340000
vt 0.224057 0.390000
vt 0.224057 0.310000
vt 0.801887 0.300000
vt 0.778302 0.300000
vt 0.613207 0.360000
vt 0.613207 0.480000
vt 0.589623 0.480000
vt 0.589623 0.360000
vt 0.011793 0.310000
vt 0.957547 0.760000
vt 0.957547 0.580000
vt 0.981132 0.580000
vt 0.981132 0.760000
vt 0.224057 0.410000
vt 0.224057 0.490000
vt 0.330189 0.740000
vt 0.330189 0.660000
vt 0.367925 0.692000
vt 0.367925 0.708000
vt 0.306604 0.440000
vt 0.306604 0.460000
vt 0.825472 0.360000
vt 0.825472 0.180000
vt 0.863208 0.212000
vt 0.863208 0.328000
vt 0.801887 0.720000
vt 0.801887 0.540000
vt 0.825472 0.540000
vt 0.825472 0.720000
vt 0.801887 0.360000
vt 0.801887 0.180000
vt 0.424528 0.760000
vt 0.424528 0.680000
vt 0.448113 0.680000
vt 0.448113 0.760000
vt 0.306604 0.740000
vt 0.306604 0.660000
vt 0.353774 0.240000
vt 0.495283 0.240000
vt 0.495283 0.260000
vt 0.353774 0.260000
vt 0.910377 0.180000
vt 0.910377 0.380000
vt 0.863208 0.340000
vt 0.863208 0.220000
vt 0.910377 0.380000
vt 0.910377 0.580000
vt 0.863208 0.540000
vt 0.863208 0.420000
vt 0.011793 0.390000
vt 0.768868 0.380000
vt 0.768868 0.580000
vt 0.721698 0.540000
vt 0.721698 0.420000
vt 0.547170 0.860000
vt 0.547170 0.780000
vt 0.570755 0.780000
vt 0.570755 0.860000
vt 0.011792 0.210000
vt 0.224056 0.210000
vt 0.306604 0.340000
vt 0.306604 0.360000
vt 0.660377 0.520000
vt 0.542453 0.520000
vt 1.000000 0.296000
vt 0.981132 0.296000
vt 0.981132 0.180000
vt 1.000000 0.180000
vt 0.660377 0.380000
vt 0.660377 0.200000
vt 0.683962 0.200000
vt 0.683962 0.380000
vt 0.660377 0.700000
vt 0.660377 0.780000
vt 0.636792 0.780000
vt 0.636792 0.700000
vt 0.367925 0.740000
vt 0.367925 0.820000
vt 0.344340 0.820000
vt 0.344340 0.740000
vt 0.863208 0.180000
vt 0.863208 0.000000
vt 0.886792 0.000000
vt 0.886792 0.180000
vt 0.924528 0.080000
vt 0.924528 0.000000
vt 0.948113 0.000000
vt 0.948113 0.080000
vt 0.660377 0.740000
vt 0.660377 0.560000
vt 0.683962 0.560000
vt 0.683962 0.740000
vt 0.306604 0.240000
vt 0.306604 0.260000
vt 0.353774 0.340000
vt 0.353774 0.360000
vt 0.759434 0.232000
vt 0.778302 0.232000
vt 0.778302 0.348000
vt 0.759434 0.348000
vt 0.533019 0.500000
vt 0.533019 0.700000
vt 0.485849 0.660000
vt 0.485849 0.540000
vt 0.485849 0.712000
vt 0.485849 0.728000
vt 0.721698 0.380000
vt 0.721698 0.200000
vt 0.542453 0.300000
vt 0.405661 0.776000
vt 0.386793 0.776000
vt 0.386793 0.660000
vt 0.405661 0.660000
vt 0.985849 0.032000
vt 0.985849 0.048000
vt 0.608490 0.812000
vt 0.608490 0.828000
vt 0.863208 0.688000
vt 0.863208 0.572000
vt 0.599056 0.748000
vt 0.599056 0.732000
vt 0.924528 0.032000
vt 0.924528 0.148000
vt 0.306604 0.788000
vt 0.306604 0.772000
vt 0.721698 0.592000
vt 0.721698 0.708000
vt 0.721698 0.232000
vt 0.721698 0.348000
vn 1.0000 0.0000 0.0000
vn 0.0000 0.0000 1.0000
vn -1.0000 0.0000 0.0000
vn 0.0000 0.0000 -1.0000
vn 0.0000 -1.0000 0.0000
vn 0.0000 1.0000 0.0000
vn 0.0000 -0.7071 0.7071
vn 0.0000 0.7071 0.7071
vn 0.0000 -0.7071 -0.7071
vn 0.7071 0.7071 0.0000
vn -0.7071 -0.7071 0.0000
vn 0.7071 -0.7071 0.0000
vn 0.0000 0.7071 -0.7071
vn -0.7071 0.7071 0.0000
s off
f 1/1/1 2/2/1 4/3/1 3/4/1
f 9/5/2 10/6/2 8/7/2 7/8/2
f 7/9/3 8/10/3 6/11/3 5/12/3
f 76/13/4 75/14/4 2/15/4 1/16/4
f 9/17/5 7/18/5 5/19/5 11/20/5
f 73/21/6 4/22/6 2/15/6 75/14/6
f 8/23/6 10/24/6 12/25/6 6/26/6
f 10/24/6 18/27/6 24/28/6 25/29/6
f 5/30/4 6/26/4 12/25/4 11/31/4
f 55/32/2 18/33/2 10/6/2 9/5/2
f 3/34/2 4/35/2 73/36/2 74/37/2
f 3/38/5 74/39/5 76/40/5 1/41/5
f 23/42/6 17/43/6 45/44/6 41/45/6
f 19/46/4 23/42/4 14/47/4 16/48/4
f 11/31/4 12/25/4 22/49/4 20/50/4
f 20/50/4 22/49/4 23/42/4 19/46/4
f 55/51/7 9/52/7 49/53/7 50/54/7
f 23/42/6 22/49/6 37/55/6 38/56/6
f 13/57/2 15/58/2 17/59/2 21/60/2
f 21/60/2 17/59/2 18/33/2 55/32/2
f 57/61/5 60/62/5 59/63/5 58/64/5
f 17/43/6 23/42/6 38/56/6 32/65/6
f 24/66/3 31/67/3 26/68/3 30/69/3
f 18/27/6 22/49/6 31/70/6 24/28/6
f 12/25/6 10/24/6 25/29/6 28/71/6
f 26/72/8 27/73/8 52/74/8 51/75/8
f 22/49/6 12/25/6 28/71/6 31/70/6
f 11/31/9 20/50/9 47/76/9 48/77/9
f 27/78/10 29/79/10 53/80/10 52/81/10
f 37/82/1 33/83/1 56/84/1 35/85/1
f 28/86/1 25/87/1 29/79/1 27/78/1
f 25/88/4 24/89/4 30/90/4 29/91/4
f 31/92/2 28/93/2 27/73/2 26/72/2
f 65/94/5 68/95/5 67/96/5 66/97/5
f 55/98/11 20/99/11 58/100/11 59/101/11
f 19/102/12 21/103/12 60/104/12 57/105/12
f 18/27/6 17/43/6 32/65/6 33/106/6
f 22/49/6 18/27/6 33/106/6 37/55/6
f 21/107/11 19/108/11 66/109/11 67/110/11
f 42/111/2 41/112/2 46/113/2 43/114/2
f 17/43/6 15/115/6 44/116/6 45/44/6
f 15/115/6 14/47/6 42/117/6 44/116/6
f 20/50/9 19/46/9 57/118/9 58/119/9
f 21/120/7 55/121/7 59/63/7 60/62/7
f 61/122/6 62/123/6 63/124/6 64/125/6
f 14/47/6 23/42/6 41/45/6 42/117/6
f 41/126/1 45/127/1 39/128/1 46/129/1
f 33/130/4 32/131/4 36/132/4 56/133/4
f 45/134/4 44/135/4 40/136/4 39/137/4
f 32/138/3 38/139/3 34/140/3 36/141/3
f 38/142/2 37/143/2 35/144/2 34/145/2
f 44/146/3 42/147/3 43/148/3 40/149/3
f 19/46/9 16/48/9 65/150/9 66/151/9
f 16/152/12 13/153/12 68/95/12 65/94/12
f 47/154/5 50/54/5 49/53/5 48/155/5
f 51/156/6 52/157/6 53/158/6 54/159/6
f 20/160/12 55/161/12 50/162/12 47/163/12
f 9/164/11 11/165/11 48/166/11 49/167/11
f 29/91/13 30/90/13 54/168/13 53/169/13
f 30/69/14 26/68/14 51/170/14 54/171/14
f 13/153/7 21/172/7 67/96/7 68/95/7
f 69/173/6 70/174/6 71/175/6 72/176/6
f 35/144/8 62/177/8 61/178/8 34/145/8
f 46/113/8 70/179/8 69/180/8 43/114/8
f 62/181/10 35/85/10 56/84/10 63/182/10
f 64/183/13 63/184/13 56/133/13 36/132/13
f 34/140/14 61/185/14 64/186/14 36/141/14
f 40/136/13 72/187/13 71/188/13 39/137/13
f 43/148/14 69/189/14 72/190/14 40/149/14
f 46/129/10 39/128/10 71/191/10 70/192/10
f 15/115/6 78/193/6 84/194/6 85/195/6
f 115/196/2 78/197/2 15/58/2 13/57/2
f 83/198/6 77/199/6 105/200/6 101/201/6
f 79/202/4 83/198/4 75/14/4 76/13/4
f 16/48/4 14/47/4 82/203/4 80/204/4
f 80/204/4 82/203/4 83/198/4 79/202/4
f 115/205/7 13/153/7 109/206/7 110/207/7
f 83/198/6 82/203/6 97/208/6 98/209/6
f 74/37/2 73/36/2 77/210/2 81/211/2
f 81/211/2 77/210/2 78/197/2 115/196/2
f 117/212/5 120/213/5 119/214/5 118/215/5
f 77/199/6 83/198/6 98/209/6 92/216/6
f 84/217/3 91/218/3 86/219/3 90/220/3
f 78/193/6 82/203/6 91/221/6 84/194/6
f 14/47/6 15/115/6 85/195/6 88/222/6
f 86/223/8 87/224/8 112/225/8 111/226/8
f 82/203/6 14/47/6 88/222/6 91/221/6
f 16/48/9 80/204/9 107/227/9 108/228/9
f 87/229/10 89/230/10 113/231/10 112/232/10
f 97/233/1 93/234/1 116/235/1 95/236/1
f 88/237/1 85/238/1 89/230/1 87/229/1
f 85/239/4 84/240/4 90/241/4 89/242/4
f 91/243/2 88/244/2 87/224/2 86/223/2
f 125/245/5 128/246/5 127/247/5 126/248/5
f 115/249/11 80/250/11 118/251/11 119/252/11
f 79/253/12 81/254/12 120/255/12 117/256/12
f 78/193/6 77/199/6 92/216/6 93/257/6
f 82/203/6 78/193/6 93/257/6 97/208/6
f 81/258/11 79/259/11 126/260/11 127/261/11
f 102/262/2 101/263/2 106/264/2 103/265/2
f 77/199/6 73/21/6 104/266/6 105/200/6
f 73/21/6 75/14/6 102/267/6 104/266/6
f 80/204/9 79/202/9 117/268/9 118/269/9
f 81/270/7 115/271/7 119/214/7 120/213/7
f 121/272/6 122/273/6 123/274/6 124/275/6
f 75/14/6 83/198/6 101/201/6 102/267/6
f 101/276/1 105/277/1 99/278/1 106/279/1
f 93/280/4 92/281/4 96/282/4 116/283/4
f 105/284/4 104/285/4 100/286/4 99/287/4
f 92/288/3 98/289/3 94/290/3 96/291/3
f 98/292/2 97/293/2 95/294/2 94/295/2
f 104/296/3 102/297/3 103/298/3 100/299/3
f 79/202/9 76/13/9 125/300/9 126/301/9
f 76/40/12 74/39/12 128/246/12 125/245/12
f 107/302/5 110/207/5 109/206/5 108/303/5
f 111/304/6 112/305/6 113/306/6 114/307/6
f 80/308/12 115/309/12 110/310/12 107/311/12
f 13/153/11 16/152/11 108/303/11 109/206/11
f 89/242/13 90/241/13 114/312/13 113/313/13
f 90/314/14 86/315/14 111/304/14 114/307/14
f 74/39/7 81/316/7 127/247/7 128/246/7
f 129/317/6 130/318/6 131/319/6 132/320/6
f 95/294/8 122/321/8 121/322/8 94/295/8
f 106/264/8 130/323/8 129/324/8 103/265/8
f 122/325/10 95/236/10 116/235/10 123/326/10
f 124/327/13 123/328/13 116/283/13 96/282/13
f 94/290/14 121/329/14 124/330/14 96/291/14
f 100/286/13 132/331/13 131/332/13 99/287/13
f 103/298/14 129/333/14 132/334/14 100/299/14
f 106/279/10 99/278/10 131/335/10 130/336/10
